<svg width="4" height="14" viewBox="0 0 4 14" fill="none" xmlns="http://www.w3.org/2000/svg">
<path d="M0.333252 7.00008C0.333252 6.55805 0.508847 6.13413 0.821407 5.82157C1.13397 5.50901 1.55789 5.33342 1.99992 5.33342C2.44195 5.33342 2.86587 5.50901 3.17843 5.82157C3.49099 6.13413 3.66658 6.55805 3.66658 7.00008C3.66658 7.44211 3.49099 7.86603 3.17843 8.17859C2.86587 8.49115 2.44195 8.66675 1.99992 8.66675C1.55789 8.66675 1.13397 8.49115 0.821407 8.17859C0.508847 7.86603 0.333252 7.44211 0.333252 7.00008ZM0.333252 12.0001C0.333252 11.5581 0.508847 11.1341 0.821407 10.8216C1.13397 10.509 1.55789 10.3334 1.99992 10.3334C2.44195 10.3334 2.86587 10.509 3.17843 10.8216C3.49099 11.1341 3.66658 11.5581 3.66658 12.0001C3.66658 12.4421 3.49099 12.866 3.17843 13.1786C2.86587 13.4912 2.44195 13.6667 1.99992 13.6667C1.55789 13.6667 1.13397 13.4912 0.821407 13.1786C0.508847 12.866 0.333252 12.4421 0.333252 12.0001ZM0.333252 2.00008C0.333252 1.55806 0.508847 1.13413 0.821407 0.821572C1.13397 0.509012 1.55789 0.333417 1.99992 0.333417C2.44195 0.333417 2.86587 0.509012 3.17843 0.821572C3.49099 1.13413 3.66658 1.55806 3.66658 2.00008C3.66658 2.44211 3.49099 2.86603 3.17843 3.17859C2.86587 3.49115 2.44195 3.66675 1.99992 3.66675C1.55789 3.66675 1.13397 3.49115 0.821407 3.17859C0.508847 2.86603 0.333252 2.44211 0.333252 2.00008Z" fill="black"/>
</svg>
