<svg width="18" height="18" viewBox="0 0 18 18" fill="none" xmlns="http://www.w3.org/2000/svg">
<path d="M12.8542 11.4167H12.0971L11.8288 11.1579C12.8004 10.0309 13.3344 8.59217 13.3333 7.10417C13.3333 5.87216 12.968 4.66781 12.2835 3.64343C11.5991 2.61905 10.6262 1.82064 9.48797 1.34917C8.34974 0.877699 7.09726 0.754341 5.88892 0.994695C4.68058 1.23505 3.57065 1.82832 2.69948 2.69948C1.82832 3.57065 1.23505 4.68058 0.994695 5.88892C0.754341 7.09726 0.877699 8.34974 1.34917 9.48797C1.82064 10.6262 2.61905 11.5991 3.64343 12.2835C4.66781 12.968 5.87216 13.3333 7.10417 13.3333C8.64709 13.3333 10.0654 12.7679 11.1579 11.8288L11.4167 12.0971V12.8542L16.2083 17.6363L17.6363 16.2083L12.8542 11.4167ZM7.10417 11.4167C4.71792 11.4167 2.79167 9.49042 2.79167 7.10417C2.79167 4.71792 4.71792 2.79167 7.10417 2.79167C9.49042 2.79167 11.4167 4.71792 11.4167 7.10417C11.4167 9.49042 9.49042 11.4167 7.10417 11.4167Z" fill="#828282"/>
</svg>
